<svg width="24" height="24" viewBox="0 0 24 24" fill="none" xmlns="http://www.w3.org/2000/svg">
<path d="M8.49848 12.8C8.54048 12.9167 8.61148 13.025 8.71148 13.125L13.3115 17.725C13.4948 17.9083 13.7281 18 14.0115 18C14.2948 18 14.5281 17.9083 14.7115 17.725C14.9121 17.5257 15.0081 17.2883 14.9995 17.013C14.9908 16.7377 14.8948 16.5083 14.7115 16.325L10.5 12.5L14.7115 8.52499C14.8948 8.34165 14.9865 8.10832 14.9865 7.82499C14.9865 7.54165 14.8948 7.30832 14.7115 7.12499C14.5121 6.92565 14.2748 6.82999 13.9995 6.83799C13.7241 6.84599 13.4948 6.94165 13.3115 7.12499L8.71148 11.725C8.61214 11.825 8.54148 11.9333 8.49948 12.05C8.45748 12.1667 8.43648 12.2917 8.43648 12.425C8.43581 12.5583 8.45648 12.6833 8.49848 12.8Z" fill="black"/>
</svg>
