<svg width="24" height="24" viewBox="0 0 24 24" fill="none" xmlns="http://www.w3.org/2000/svg">
<path d="M16.9 17.3L12.3 12.7C12.2 12.6 12.129 12.4917 12.087 12.375C12.045 12.2583 12.0247 12.1333 12.026 12C12.026 11.8667 12.047 11.7417 12.089 11.625C12.131 11.5083 12.2017 11.4 12.301 11.3L16.901 6.7C17.0843 6.51667 17.3137 6.421 17.589 6.413C17.8643 6.405 18.1017 6.50067 18.301 6.7C18.4843 6.88333 18.576 7.11667 18.576 7.4C18.576 7.68333 18.4843 7.91667 18.301 8.1L14.425 12L18.3 15.9C18.4833 16.0833 18.5793 16.3127 18.588 16.588C18.5967 16.8633 18.5007 17.1007 18.3 17.3C18.1167 17.4833 17.8833 17.575 17.6 17.575C17.3167 17.575 17.0833 17.4833 16.9 17.3ZM10.3 17.3L5.7 12.7C5.6 12.6 5.529 12.4917 5.487 12.375C5.445 12.2583 5.42434 12.1333 5.425 12C5.425 11.8667 5.446 11.7417 5.488 11.625C5.53 11.5083 5.60067 11.4 5.7 11.3L10.3 6.7C10.4833 6.51667 10.7127 6.421 10.988 6.413C11.2633 6.405 11.5007 6.50067 11.7 6.7C11.8833 6.88333 11.975 7.11667 11.975 7.4C11.975 7.68333 11.8833 7.91667 11.7 8.1L7.825 12L11.7 15.9C11.8833 16.0833 11.9793 16.3127 11.988 16.588C11.9967 16.8633 11.9007 17.1007 11.7 17.3C11.5167 17.4833 11.2833 17.575 11 17.575C10.7167 17.575 10.4833 17.4833 10.3 17.3Z" fill="black"/>
</svg>
