<svg width="83" height="75" viewBox="0 0 83 75" fill="none" xmlns="http://www.w3.org/2000/svg">
<path d="M67.4792 6.16669H11.5209C8.79397 6.16669 6.58337 8.37728 6.58337 11.1042V53.8959C6.58337 56.6228 8.79397 58.8334 11.5209 58.8334H67.4792C70.2061 58.8334 72.4167 56.6228 72.4167 53.8959V11.1042C72.4167 8.37728 70.2061 6.16669 67.4792 6.16669Z" stroke="black" stroke-width="3.29167" stroke-linejoin="round"/>
<path d="M6.58337 11.1042C6.58337 8.37729 8.79398 6.16669 11.5209 6.16669H67.4792C70.2062 6.16669 72.4167 8.37729 72.4167 11.1042V25.9167H6.58337V11.1042Z" fill="#C50000" stroke="black" stroke-width="3.29167"/>
<path d="M13.1667 16.0416C13.1667 14.2237 14.6404 12.75 16.4583 12.75C18.2763 12.75 19.75 14.2237 19.75 16.0416C19.75 17.8596 18.2763 19.3333 16.4583 19.3333C14.6404 19.3333 13.1667 17.8596 13.1667 16.0416Z" fill="white"/>
<path d="M23.0417 16.0416C23.0417 14.2237 24.5154 12.75 26.3333 12.75C28.1513 12.75 29.625 14.2237 29.625 16.0416C29.625 17.8596 28.1513 19.3333 26.3333 19.3333C24.5154 19.3333 23.0417 17.8596 23.0417 16.0416Z" fill="white"/>
<g clip-path="url(#clip0_1_135)">
<path d="M56.8636 34.6439C55.8578 34.6439 54.999 34.9998 54.2873 35.7115C53.5755 36.4232 53.2197 37.282 53.2197 38.2879V41.9318H52.3087V39.2843C52.3087 38.3733 52.005 37.5999 51.3977 36.9641C50.7904 36.3283 50.0312 36.0104 49.1203 36.0104C48.2472 36.0104 47.4976 36.3236 46.8713 36.9499C46.245 37.5762 45.9318 38.3258 45.9318 39.1989V51.4118L45.0208 50.5577V45.6612C45.0208 44.7502 44.7172 43.9768 44.1098 43.341C43.5025 42.7052 42.7434 42.3873 41.8324 42.3873C40.9594 42.3873 40.2097 42.7005 39.5834 43.3268C38.9571 43.9531 38.6439 44.7027 38.6439 45.5758V51.9527C38.6439 52.8447 38.9761 53.6228 39.6403 54.2871L48.4655 62.7137C49.2057 63.4538 49.5758 64.4218 49.5758 65.6174C49.5758 66.1109 49.7561 66.5379 50.1167 66.8985C50.4773 67.2591 50.9043 67.4394 51.3977 67.4394H69.6174C70.1109 67.4394 70.5379 67.2591 70.8985 66.8985C71.2591 66.5379 71.4394 66.1109 71.4394 65.6174V64.9057C71.4394 64.1276 71.5343 63.3969 71.7241 62.7137L74.7986 50.3015C74.9884 49.6183 75.0833 48.8876 75.0833 48.1094V41.1062C75.0833 40.1953 74.7797 39.4219 74.1723 38.7861C73.565 38.1503 72.8059 37.8324 71.8949 37.8324C71.0219 37.8324 70.2722 38.1455 69.6459 38.7718C69.0196 39.3981 68.7064 40.1478 68.7064 41.0208V41.9318H67.7955V38.3733C67.7955 37.6141 67.5582 36.9261 67.0837 36.3093C66.6093 35.6925 66.002 35.3082 65.2618 35.1564C64.9961 35.1184 64.7778 35.0994 64.607 35.0994C63.734 35.0994 62.9843 35.4126 62.358 36.0389C61.7317 36.6652 61.4186 37.4149 61.4186 38.2879V41.9318H60.5076V38.4587C60.5076 37.4908 60.1992 36.6415 59.5824 35.9108C58.9655 35.1801 58.1827 34.7673 57.2337 34.6724C57.1388 34.6534 57.0155 34.6439 56.8636 34.6439ZM56.8636 31C58.4579 31 59.8718 31.4745 61.1054 32.4234C62.1872 31.7781 63.3544 31.4555 64.607 31.4555C65.7268 31.4555 66.7801 31.7117 67.767 32.2241C68.7539 32.7366 69.57 33.4578 70.2153 34.3877C70.7277 34.2549 71.2876 34.1884 71.8949 34.1884C73.7928 34.1884 75.406 34.8669 76.7345 36.2239C78.063 37.5809 78.7273 39.2084 78.7273 41.1062V48.1094C78.7273 49.0774 78.6039 50.1022 78.3572 51.184L75.2541 63.5962C75.1403 64.0517 75.0833 64.7254 75.0833 65.6174C75.0833 67.1357 74.5519 68.4263 73.4891 69.4891C72.4263 70.5519 71.1357 71.0833 69.6174 71.0833H51.3977C49.8035 71.0833 48.494 70.5282 47.4691 69.4179C46.4442 68.3077 45.9318 66.9554 45.9318 65.3612L37.1636 56.9346C35.7212 55.5491 35 53.8885 35 51.9527V45.5758C35 43.6969 35.669 42.0884 37.007 40.7504C38.345 39.4124 39.9535 38.7434 41.8324 38.7434C42.0412 38.7434 42.193 38.7529 42.2879 38.7718C42.4018 36.9688 43.1182 35.4505 44.4372 34.2169C45.7563 32.9833 47.3173 32.3665 49.1203 32.3665C50.1072 32.3665 51.0371 32.5658 51.9102 32.9643C53.2766 31.6548 54.9278 31 56.8636 31Z" fill="black"/>
<path d="M56.8636 34.6439C55.8578 34.6439 54.999 34.9998 54.2873 35.7115C53.5755 36.4232 53.2197 37.282 53.2197 38.2879V41.9318H52.3087V39.2843C52.3087 38.3733 52.005 37.5999 51.3977 36.9641C50.7904 36.3283 50.0312 36.0104 49.1203 36.0104C48.2472 36.0104 47.4976 36.3236 46.8713 36.9499C46.245 37.5762 45.9318 38.3258 45.9318 39.1989V51.4118L45.0208 50.5577V45.6612C45.0208 44.7502 44.7172 43.9768 44.1098 43.341C43.5025 42.7052 42.7434 42.3873 41.8324 42.3873C40.9594 42.3873 40.2097 42.7005 39.5834 43.3268C38.9571 43.9531 38.6439 44.7027 38.6439 45.5758V51.9527C38.6439 52.8447 38.9761 53.6228 39.6403 54.2871L48.4655 62.7137C49.2057 63.4538 49.5758 64.4218 49.5758 65.6174C49.5758 66.1109 49.7561 66.5379 50.1167 66.8985C50.4773 67.2591 50.9043 67.4394 51.3977 67.4394H69.6174C70.1109 67.4394 70.5379 67.2591 70.8985 66.8985C71.2591 66.5379 71.4394 66.1109 71.4394 65.6174V64.9057C71.4394 64.1276 71.5343 63.3969 71.7241 62.7137L74.7986 50.3015C74.9884 49.6183 75.0833 48.8876 75.0833 48.1094V41.1062C75.0833 40.1953 74.7797 39.4219 74.1723 38.7861C73.565 38.1503 72.8059 37.8324 71.8949 37.8324C71.0219 37.8324 70.2722 38.1455 69.6459 38.7718C69.0196 39.3981 68.7064 40.1478 68.7064 41.0208V41.9318H67.7955V38.3733C67.7955 37.6141 67.5582 36.9261 67.0837 36.3093C66.6093 35.6925 66.002 35.3082 65.2618 35.1564C64.9961 35.1184 64.7778 35.0994 64.607 35.0994C63.734 35.0994 62.9843 35.4126 62.358 36.0389C61.7317 36.6652 61.4186 37.4149 61.4186 38.2879V41.9318H60.5076V38.4587C60.5076 37.4908 60.1992 36.6415 59.5824 35.9108C58.9655 35.1801 58.1827 34.7673 57.2337 34.6724C57.1388 34.6534 57.0155 34.6439 56.8636 34.6439Z" fill="#F0B89C"/>
</g>
<defs>
<clipPath id="clip0_1_135">
<rect width="43.7273" height="40.0833" fill="white" transform="translate(35 31)"/>
</clipPath>
</defs>
</svg>
